<?xml version="1.0" encoding="utf-8"?>
<!-- Generator: Adobe Illustrator 16.0.0, SVG Export Plug-In . SVG Version: 6.00 Build 0)  -->
<!DOCTYPE svg PUBLIC "-//W3C//DTD SVG 1.1//EN" "http://www.w3.org/Graphics/SVG/1.1/DTD/svg11.dtd">
<svg version="1.1" id="Layer_1" xmlns="http://www.w3.org/2000/svg" xmlns:xlink="http://www.w3.org/1999/xlink" x="0px" y="0px"
	 width="157.805px" height="74.373px" viewBox="0 0 157.805 74.373" enable-background="new 0 0 157.805 74.373"
	 xml:space="preserve">
<g>
	<path fill="#2069E0" d="M66.433,57.216h-6.796c0-31.455,24.803-57.045,55.292-57.045v6.797
		C88.187,6.968,66.433,29.507,66.433,57.216z"/>
</g>
<g>
	<path fill="#5D5D5D" d="M143.976,57.232c-1.518,0-3.047-0.121-4.574-0.367c-15.529-2.492-26.137-17.152-23.646-32.68
		c2.494-15.528,17.156-26.133,32.682-23.644c2.633,0.423,5.184,1.205,7.58,2.326l-2.879,6.155c-1.826-0.854-3.768-1.449-5.777-1.771
		c-11.826-1.897-22.996,6.182-24.895,18.01c-1.896,11.828,6.182,22.994,18.012,24.893c4.637,0.742,9.281-0.002,13.428-2.156
		l3.133,6.031C152.954,56.148,148.507,57.232,143.976,57.232z"/>
</g>
<path fill="#5D5D5D" d="M57.369,28.683c0-15.275-11.939-27.754-26.996-28.631C29.813,0.021,29.252,0,28.684,0
	C12.844,0,0,12.841,0,28.683s12.844,28.686,28.684,28.686c8.707,0,16.501-3.883,21.762-10.006v10.16h6.924 M50.445,31.044
	c-1.181,10.963-10.488,19.527-21.762,19.527c-12.068,0-21.888-9.816-21.888-21.889c0-12.068,9.819-21.887,21.888-21.887
	c0.569,0,1.131,0.029,1.689,0.07c11.282,0.867,20.201,10.317,20.201,21.817c0,0.537-0.025,1.064-0.064,1.592"/>
<g>
	<path fill="#5D5D5D" d="M92.607,73.071l0.822-1.284c0.582,0.6,1.729,1.147,2.79,1.147c1.079,0,1.644-0.445,1.644-1.096
		c0-1.626-4.999-0.462-4.999-3.646c0-1.353,1.164-2.5,3.253-2.5c1.404,0,2.466,0.497,3.202,1.147l-0.754,1.267
		c-0.496-0.548-1.403-0.993-2.448-0.993c-0.941,0-1.523,0.445-1.523,1.027c0,1.455,4.999,0.359,4.999,3.646
		c0,1.473-1.216,2.586-3.441,2.586C94.73,74.373,93.464,73.91,92.607,73.071z"/>
	<path fill="#5D5D5D" d="M100.896,70.024c0-2.38,1.609-4.332,4.245-4.332c2.637,0,4.246,1.952,4.246,4.332
		c0,2.362-1.609,4.349-4.246,4.349C102.506,74.373,100.896,72.387,100.896,70.024z M107.521,70.024c0-1.455-0.839-2.739-2.38-2.739
		c-1.523,0-2.379,1.284-2.379,2.739c0,1.472,0.855,2.756,2.379,2.756C106.683,72.78,107.521,71.496,107.521,70.024z"/>
	<path fill="#5D5D5D" d="M111.669,74.167v-6.711h-1.37v-1.558h1.37v-0.463c0-1.797,1.044-2.858,2.603-2.858
		c0.753,0,1.489,0.188,1.985,0.719l-0.701,1.112c-0.24-0.222-0.548-0.359-0.942-0.359c-0.719,0-1.146,0.463-1.146,1.387v0.463h1.678
		v1.558h-1.678v6.711H111.669z"/>
	<path fill="#5D5D5D" d="M116.893,72.232v-4.776h-1.37v-1.558h1.37v-2.26h1.798v2.26h1.678v1.558h-1.678v4.331
		c0,0.565,0.273,0.993,0.787,0.993c0.343,0,0.65-0.154,0.787-0.308l0.429,1.369c-0.325,0.291-0.856,0.531-1.678,0.531
		C117.611,74.373,116.893,73.619,116.893,72.232z"/>
	<path fill="#5D5D5D" d="M129.203,74.167l-1.935-6.061l-1.917,6.061h-1.884l-2.567-8.269h1.866l1.746,6.009l1.969-6.009h1.592
		l1.952,6.009l1.746-6.009h1.883l-2.567,8.269H129.203z"/>
	<path fill="#5D5D5D" d="M139.977,74.167V73.26c-0.616,0.719-1.592,1.113-2.688,1.113c-1.335,0-2.859-0.925-2.859-2.739
		c0-1.918,1.507-2.705,2.859-2.705c1.13,0,2.071,0.359,2.688,1.062v-1.233c0-0.958-0.805-1.54-1.935-1.54
		c-0.924,0-1.746,0.342-2.448,1.061l-0.753-1.249c0.959-0.925,2.157-1.336,3.476-1.336c1.849,0,3.458,0.771,3.458,2.979v5.495
		H139.977z M139.977,72.284v-1.268c-0.428-0.564-1.198-0.855-1.969-0.855c-1.01,0-1.78,0.6-1.78,1.489
		c0,0.907,0.771,1.489,1.78,1.489C138.778,73.14,139.549,72.849,139.977,72.284z"/>
	<path fill="#5D5D5D" d="M144.105,74.167v-8.269h1.798v1.198c0.634-0.788,1.626-1.404,2.688-1.404v1.781
		c-0.153-0.035-0.325-0.052-0.548-0.052c-0.771,0-1.78,0.514-2.14,1.112v5.633H144.105z"/>
	<path fill="#5D5D5D" d="M149.553,70.024c0-2.397,1.746-4.332,4.194-4.332c2.482,0,4.058,1.884,4.058,4.485v0.445h-6.369
		c0.137,1.233,1.062,2.277,2.619,2.277c0.822,0,1.764-0.325,2.363-0.925l0.821,1.182c-0.839,0.787-2.055,1.216-3.355,1.216
		C151.385,74.373,149.553,72.644,149.553,70.024z M153.729,67.165c-1.523,0-2.242,1.182-2.311,2.174h4.656
		C156.024,68.363,155.356,67.165,153.729,67.165z"/>
</g>
</svg>
