<svg xmlns="http://www.w3.org/2000/svg" width="76" height="68">
    <path fill="#CFCFCF" fill-rule="evenodd" d="M45.52 34.966a32.97 32.97 0 0 1-1.045.329c.127.514.24 1.017.337 1.51 1.271 6.46.292 11.77-2.72 13.525-2.917 1.698-7.63.03-12.403-4.103a36.362 36.362 0 0 1-1.518-1.394c-.392.381-.783.744-1.172 1.087-4.928 4.334-9.988 6.132-13.003 4.383-2.919-1.695-3.836-6.637-2.662-12.862.129-.677.276-1.349.442-2.018a30.729 30.729 0 0 1-1.519-.477C4.064 32.816-.012 29.304-.012 25.801c0-3.391 3.797-6.66 9.743-8.746a38.26 38.26 0 0 1 2.078-.658 38.53 38.53 0 0 1-.415-1.871c-1.232-6.334-.365-11.398 2.562-13.103 3.052-1.777 8.135.131 13.207 4.663.315.282.625.571.93.865.455-.442.922-.874 1.398-1.292 4.839-4.237 9.631-6.01 12.56-4.309 3.056 1.772 3.95 7.158 2.582 13.843-.086.414-.179.828-.28 1.24.608.175 1.211.366 1.808.573 6.066 2.101 9.985 5.392 9.985 8.795 0 3.549-4.188 7.02-10.626 9.165zm-14.266 9.43c4.081 3.535 7.866 4.875 9.636 3.844.831-.484 1.504-1.694 1.839-3.507.372-2.02.291-4.602-.27-7.459a31.07 31.07 0 0 0-.304-1.367c-2.327.541-4.891.937-7.606 1.179-1.544 2.249-3.125 4.274-4.708 6.015.473.458.945.891 1.413 1.295zM18.152 20.098a72.714 72.714 0 0 1 1.721-2.848c-1.78.224-3.488.519-5.091.88a53.204 53.204 0 0 0 1.785 4.889 70.975 70.975 0 0 1 1.585-2.921zm-3.403 13.588c1.602.351 3.337.631 5.176.837a68.954 68.954 0 0 1-1.763-2.902 69.38 69.38 0 0 1-1.592-2.923 54.26 54.26 0 0 0-1.821 4.988zm3.093-7.827a68.358 68.358 0 0 0 5.141 8.934c1.636.107 3.337.162 5.084.162 1.755 0 3.477-.062 5.143-.182a80.04 80.04 0 0 0 2.694-4.374 73.023 73.023 0 0 0 2.413-4.574 78.73 78.73 0 0 0-2.421-4.534 72.626 72.626 0 0 0-2.706-4.348 67.122 67.122 0 0 0-5.123-.194 67.04 67.04 0 0 0-5.113.193 67.19 67.19 0 0 0-2.723 4.362v-.001a68.5 68.5 0 0 0-2.389 4.556zm20.13-5.778a84.71 84.71 0 0 1 1.616 2.94 51.676 51.676 0 0 0 1.797-4.866 52.379 52.379 0 0 0-5.12-.9 77.045 77.045 0 0 1 1.707 2.826zm.01 11.524c-.556.97-1.13 1.928-1.724 2.876a50.755 50.755 0 0 0 5.239-.899 51.663 51.663 0 0 0-1.886-4.971 77.275 77.275 0 0 1-1.629 2.994zm-9.822 9.768a51.337 51.337 0 0 0 3.297-4.08 80.497 80.497 0 0 1-6.676.011 54.078 54.078 0 0 0 3.379 4.069zm-12.965 6.838c.832.484 2.209.466 3.938-.149h.001c1.924-.684 4.107-2.043 6.286-3.96.365-.322.722-.652 1.07-.991-1.64-1.771-3.267-3.793-4.82-5.993-2.722-.223-5.268-.591-7.568-1.103a35.03 35.03 0 0 0-.411 1.877c-1.004 5.323-.268 9.291 1.504 10.319zm-2.742-29.489c-.65.186-1.294.39-1.933.613-5.084 1.784-8.133 4.408-8.133 6.466 0 .967.703 2.159 2.096 3.359 1.55 1.335 3.811 2.56 6.55 3.502.458.156.921.302 1.386.436.71-2.327 1.644-4.77 2.771-7.238-1.112-2.432-2.034-4.837-2.737-7.138zM25.57 7.891c-4.379-3.913-8.533-5.473-10.412-4.378-1.764 1.028-2.465 5.121-1.41 10.549.114.584.243 1.164.386 1.74 2.325-.529 4.853-.924 7.494-1.171a57.978 57.978 0 0 1 4.784-5.958c-.282-.27-.563-.532-.842-.782zm2.524 2.509a52.816 52.816 0 0 0-3.333 4.012 69.98 69.98 0 0 1 6.638.002 51.283 51.283 0 0 0-3.305-4.014zm12.759-6.96c-1.766-1.024-5.641.409-9.787 4.04-.44.387-.87.785-1.291 1.192 1.605 1.741 3.204 3.751 4.747 5.962 2.649.251 5.179.653 7.509 1.194.091-.373.175-.747.252-1.124 1.182-5.771.45-10.172-1.43-11.264zm4.527 15.849a34.513 34.513 0 0 0-1.669-.531c-.691 2.25-1.613 4.626-2.733 7.055 1.174 2.487 2.133 4.895 2.844 7.159.321-.096.636-.195.943-.297 5.559-1.853 8.982-4.69 8.982-6.874 0-2.051-3.17-4.712-8.367-6.512zm-17.313 1.466c2.77 0 5.015 2.258 5.015 5.046 0 2.787-2.245 5.046-5.015 5.046-2.769 0-5.015-2.259-5.015-5.046 0-2.788 2.246-5.046 5.015-5.046z"/>
</svg>
