<svg xmlns="http://www.w3.org/2000/svg" width="46pt" height="47pt">
    <path fill="#CFCFCF" fill-rule="evenodd" d="M41.149 2.496a21.726 21.726 0 0 1-2.384 4.375C29.992-2.184 15.815-2.136 7.1 6.98c-8.715 9.115-8.668 23.843.104 32.897.096.099.192.196.289.292l.842.76c9.453 8.275 23.575 7.022 31.539-2.799 3.048-3.761 4.871-8.427 5.207-13.33.598-5.902-1.078-13.392-3.932-22.304zM10.676 40.327a1.867 1.867 0 0 1-2.692.313c-.827-.686-.962-1.939-.302-2.797.66-.861 1.866-1 2.693-.314l.002.002c.825.687.959 1.937.299 2.796zm30.376-6.96c-5.525 7.642-17.321 5.065-24.884 5.432 0 0-1.34.079-2.687.312 0 0 .51-.228 1.162-.46 5.31-1.907 7.821-2.293 11.05-4.016 6.064-3.229 12.103-10.256 13.321-17.561-2.3 7.026-9.324 13.073-15.717 15.526-4.375 1.681-12.288 3.307-12.288 3.313l-.32-.175c-5.365-2.726-5.538-14.832 4.236-18.735 4.296-1.715 8.385-.774 13.017-1.92 4.939-1.216 10.651-5.066 12.987-10.115 2.612 8.05 5.74 20.623.123 28.399z"/>
</svg>
