<svg xmlns="http://www.w3.org/2000/svg" width="40pt" height="70pt">
    <path fill="#5D5D5D" fill-rule="evenodd" d="M32.897 69.987h-25.8c-3.91 0-7.092-3.23-7.092-7.2V7.206C.005 3.235 3.187.005 7.097.005h25.8c3.912 0 7.094 3.23 7.094 7.201v55.581c0 3.97-3.182 7.2-7.094 7.2zM38.44 7.206c0-3.103-2.484-5.627-5.543-5.627h-25.8c-3.056 0-5.542 2.524-5.542 5.627V9.3H38.44V7.206zm0 26.195V10.873H1.555v41.565H38.44V33.401zm0 20.609H1.555v8.777c0 3.102 2.486 5.626 5.542 5.626h25.8c3.059 0 5.543-2.524 5.543-5.626V54.01zM19.998 65.123c-2.42 0-4.39-1.997-4.39-4.455 0-2.456 1.97-4.454 4.39-4.454 2.419 0 4.389 1.998 4.389 4.454 0 2.458-1.97 4.455-4.389 4.455zm0-7.336c-1.565 0-2.839 1.295-2.839 2.881 0 1.589 1.274 2.883 2.839 2.883 1.564 0 2.838-1.294 2.838-2.883 0-1.586-1.274-2.881-2.838-2.881zm13.527-17H6.47V20.984h27.055v19.803zm-3.233-1.573l-10.069-7.526-.225.161-.077-.056-10.216 7.421h20.587zm-22.271-.722l10.557-7.658-10.557-7.547v15.205zm1.671-15.935l9.804 7.009.17-.247.578.43 10.061-7.192H9.692zm22.284.73l-10.415 7.444 10.415 7.761V23.287z"/>
</svg>
