<svg xmlns="http://www.w3.org/2000/svg" width="55pt" height="56pt">
    <path fill="#5D5D5D" fill-rule="evenodd" d="M54.647 48.66l-7.173 7a1.22 1.22 0 0 1-.846.34H29.891c-.317 0-.622-.123-.846-.34l-1.546-1.509-1.543 1.505a1.207 1.207 0 0 1-.847.344H8.373a1.22 1.22 0 0 1-.847-.34l-7.172-7a1.161 1.161 0 0 1-.35-.827V29.167c0-.311.127-.607.35-.827l4.432-4.323V17.5c0-.31.127-.607.35-.826l2.041-1.991V8.166c0-.31.127-.606.349-.826l7.173-7c.225-.216.529-.34.847-.34h9.564c.317 0 .621.124.846.34l1.546 1.509L29.045.343c.224-.219.529-.343.847-.343h9.564c.317 0 .621.124.845.34l7.173 7c.223.22.349.516.349.826v6.517l2.042 1.993c.222.217.35.514.35.824v6.517l4.432 4.326c.223.217.349.513.349.824v18.666c0 .311-.126.607-.349.827zm-2.042-19.011l-4.432-4.325a1.154 1.154 0 0 1-.349-.824v-6.517l-2.043-1.993a1.152 1.152 0 0 1-.349-.823V8.649L38.96 2.333h-8.574l-2.038 1.988-.001.003-.002.001h-.001a1.215 1.215 0 0 1-1.69 0c-.003-.003-.004-.008-.008-.011l-2.032-1.981h-8.573L9.568 8.649v6.518c0 .31-.126.606-.349.825l-2.042 1.99V24.5c0 .31-.126.607-.349.825l-4.433 4.324V47.35l2.391 2.334V31.5c0-.311.127-.607.35-.826l5.716-5.579a2.252 2.252 0 0 1-.088-.595c0-1.289 1.071-2.334 2.391-2.334s2.391 1.045 2.391 2.334c0 1.288-1.071 2.333-2.391 2.333-.214 0-.416-.036-.613-.087l-5.365 5.237v20.034l1.691 1.65h3.79l-2.741-2.675a1.162 1.162 0 0 1-.349-.826V33.832c0-.309.127-.606.349-.825l2.391-2.334a1.22 1.22 0 0 1 1.691 0 1.148 1.148 0 0 1 0 1.65l-2.04 1.993v15.367l4.082 3.984h3.789l-5.131-5.007a1.164 1.164 0 0 1-.349-.827V36.167c0-.311.127-.607.349-.827l2.042-1.99v-4.183c0-.644.536-1.167 1.196-1.167.659 0 1.195.523 1.195 1.166v4.666c0 .312-.127.607-.349.827l-2.042 1.99V47.35l6.473 6.317h1.4l1.195-1.166-6.328-6.176a1.158 1.158 0 0 1-.349-.825v-2.333c0-.311.127-.606.349-.826l6.824-6.658v-17.7l-.584-.57a2.417 2.417 0 0 1-.611.087c-1.32 0-2.391-1.045-2.391-2.334 0-1.288 1.071-2.333 2.391-2.333 1.319 0 2.39 1.045 2.39 2.334 0 .207-.036.405-.089.596l.933.911c.225.219.352.516.352.826v18.667c0 .309-.127.607-.35.825l-6.823 6.657v1.368l6.818 6.654.005.003c.004.003.004.008.008.011l2.032 1.982h15.747l6.472-6.317V29.649zM36.218 46.325l-2.391-2.332c-.071-.069-.11-.154-.16-.234-.03-.049-.073-.088-.096-.141a1.158 1.158 0 0 1-.093-.458v-3.493h-1.195c-.66 0-1.196-.523-1.196-1.167s.536-1.168 1.196-1.168h1.194V35h-1.194c-.66 0-1.196-.523-1.196-1.167s.536-1.166 1.196-1.166h1.194v-2.334h-1.195c-.659 0-1.195-.523-1.195-1.166 0-.644.536-1.167 1.195-1.167h1.195v-1.166c0-.645.536-1.168 1.196-1.168.66 0 1.196.523 1.196 1.168V28h2.391V17.5c0-.31.127-.607.348-.826L41 14.34a1.217 1.217 0 0 1 1.69 0 1.148 1.148 0 0 1 0 1.65l-2.039 1.992V28h2.39v-8.167c0-.644.536-1.167 1.195-1.167.661 0 1.196.523 1.196 1.167V28h1.197c.659 0 1.194.523 1.194 1.166 0 .644-.535 1.166-1.195 1.166h-1.196v2.335h1.197c.659 0 1.194.522 1.194 1.165 0 .645-.535 1.168-1.195 1.168h-1.196v2.332h1.197c.659 0 1.194.524 1.195 1.168 0 .644-.536 1.166-1.195 1.166h-1.197v1.167c0 .644-.535 1.167-1.195 1.167s-1.195-.523-1.195-1.167v-1.166h-2.391v1.166c0 .644-.536 1.167-1.195 1.167-.66 0-1.196-.523-1.196-1.167v-1.166h-2.391v3.019l1.69 1.647h11.46c.66 0 1.196.522 1.196 1.167 0 .644-.536 1.167-1.196 1.167H37.064a1.22 1.22 0 0 1-.846-.342zm6.824-8.993v-7h-3.581l-.005.001-.005-.001h-3.582v7h7.173zm-3.586-4.666c.66 0 1.195.522 1.195 1.166 0 .645-.535 1.168-1.195 1.168s-1.196-.523-1.196-1.168c0-.644.536-1.166 1.196-1.166zm2.39-20.999h-4.782a1.22 1.22 0 0 1-.846-.341l-4.783-4.667a1.148 1.148 0 0 1 0-1.65 1.218 1.218 0 0 1 1.691 0l4.433 4.324h4.287c.66 0 1.196.523 1.196 1.167s-.536 1.167-1.196 1.167zm-5.978 3.5v4.666c0 .31-.127.607-.349.826l-2.39 2.334a1.22 1.22 0 0 1-1.694 0 1.148 1.148 0 0 1 0-1.65l2.042-1.993v-3.701l-4.432-4.325a1.148 1.148 0 0 1 0-1.65 1.217 1.217 0 0 1 1.69 0l4.782 4.666c.224.22.352.516.351.827zm-5.977 29.166c0 .208-.037.406-.09.598L33.973 49h10.263c.661 0 1.196.523 1.196 1.167s-.535 1.166-1.196 1.166H33.477a1.22 1.22 0 0 1-.846-.341L28.11 46.58c-.196.05-.397.086-.61.086-1.32 0-2.39-1.045-2.39-2.333 0-1.287 1.07-2.333 2.39-2.333 1.321 0 2.391 1.046 2.391 2.333zM18.783 13.657a1.21 1.21 0 0 1-.846.343h-4.782c-.66 0-1.196-.523-1.196-1.167s.536-1.167 1.196-1.167h4.287l6.824-6.659a1.217 1.217 0 0 1 1.69 0 1.148 1.148 0 0 1 0 1.65l-7.173 7zM16.39 8.993c-.232.226-.538.34-.844.34-.307 0-.613-.114-.847-.34a1.148 1.148 0 0 1 0-1.65L17.09 5.01a1.217 1.217 0 0 1 1.69 0 1.146 1.146 0 0 1 0 1.649l-2.39 2.334zm-3.235 7.34h4.781c.319 0 .623.124.847.341l4.782 4.666c.222.22.349.516.349.826v11.666c0 .645-.535 1.168-1.195 1.168s-1.196-.523-1.196-1.167V22.649l-4.081-3.982h-4.287c-.66 0-1.196-.523-1.196-1.167s.536-1.167 1.196-1.167z"/>
</svg>
